Uploading this one as i felt like some people would appreciate a better encode than the previous one (http://thepiratebay.org/torrent/3556012/Chris_Marker_-_Level_Five_%281997%29p) for this movie.

File info:

Format                           : AVI
Format/Info                      : Audio Video Interleave
File size                        : 1.36 GiB
Duration                         : 1h 44mn
Overall bit rate                 : 1 863 Kbps
Writing application              : VirtualDubMod 1.5.10.1 (build 2439/release)
Writing library                  : VirtualDubMod build 2439/release

Video
ID                               : 0
Format                           : MPEG-4 Visual
Format profile                   : Simple@L3
Format settings, BVOP            : Yes
Format settings, QPel            : No
Format settings, GMC             : No warppoints
Format settings, Matrix          : Default (H.263)
Codec ID                         : XVID
Codec ID/Hint                    : XviD
Duration                         : 1h 44mn
Bit rate                         : 1 661 Kbps
Width                            : 624 pixels
Height                           : 464 pixels
Display aspect ratio             : 4:3
Frame rate                       : 25.000 fps
Color space                      : YUV
Chroma subsampling               : 4:2:0
Bit depth                        : 8 bits
Scan type                        : Progressive
Bits/(Pixel*Frame)               : 0.229
Stream size                      : 1.21 GiB (89%)
Writing library                  : XviD 1.0.0 Beta2.5 (UTC 2003-12-18)

Audio
ID                               : 1
Format                           : AC-3
Format/Info                      : Audio Coding 3
Format profile                   : Dolby Digital
Mode extension                   : CM (complete main)
Codec ID                         : 2000
Duration                         : 1h 44mn
Bit rate mode                    : Constant
Bit rate                         : 192 Kbps
Channel(s)                       : 2 channels
Channel positions                : Front: L R
Sampling rate                    : 48.0 KHz
Bit depth                        : 16 bits
Video delay                      : 700ms
Stream size                      : 144 MiB (10%)
Alignment                        : Split accross interleaves
Interleave, duration             : 40 ms (1.00 video frame)
Interleave, preload duration     : 500 ms


Not my rip/encode - thanks to whoever did that!

Enjoy!

********************************** FREAKYFLICKS ***********************************

FreakyFlicks is a free and open community dedicated to preserving and sharing cinematic art in the digital era. Our goal is to disseminate such works of art to the widest audience possible through the channels provided by P2P technology.

The FreakyFlicks collection is limited to those films that have played an exceptional role in the history of cinema and its progression in becoming a great art. 

Films that are usually described as classic, cult, arthouse and avant-garde.

If you have films that fit this description feel free to share them and participate in our community. 

All you need do is include this tag in your upload and join us at the forum to announce your release.
      
https://board.freakyflicks.org

'If we all seed just 1:1, 
give at least what we take, 
this torrent will NEVER DIE!'

